{
    "asset" : {
        "generator" : "Khronos glTF Blender I/O v1.2.75",
        "version" : "2.0"
    },
    "scene" : 0,
    "scenes" : [
        {
            "name" : "Scene",
            "nodes" : [
                0,
                1,
                2
            ]
        }
    ],
    "nodes" : [
        {
            "name" : "Light",
            "rotation" : [
                0.16907575726509094,
                0.7558803558349609,
                -0.27217137813568115,
                0.570947527885437
            ],
            "translation" : [
                13.90926742553711,
                15.092421531677246,
                -1.0054539442062378
            ]
        },
        {
            "mesh" : 0,
            "name" : "Esfera",
            "scale" : [
                10.089447975158691,
                10.089447975158691,
                10.089447975158691
            ],
            "translation" : [
                0,
                11.056617736816406,
                0
            ]
        },
        {
            "mesh" : 1,
            "name" : "Plano",
            "scale" : [
                0.06966686248779297,
                0.06966686248779297,
                0.06966686248779297
            ]
        }
    ],
    "materials" : [
        {
            "doubleSided" : true,
            "emissiveFactor" : [
                0,
                0,
                0
            ],
            "name" : "SOL",
            "pbrMetallicRoughness" : {
                "baseColorTexture" : {
                    "index" : 0,
                    "texCoord" : 0
                },
                "metallicFactor" : 0,
                "roughnessFactor" : 0.5
            }
        }
    ],
    "meshes" : [
        {
            "name" : "Esfera",
            "primitives" : [
                {
                    "attributes" : {
                        "POSITION" : 0,
                        "NORMAL" : 1,
                        "TEXCOORD_0" : 2
                    },
                    "indices" : 3,
                    "material" : 0
                }
            ]
        },
        {
            "name" : "Plano",
            "primitives" : [
                {
                    "attributes" : {
                        "POSITION" : 4,
                        "NORMAL" : 5,
                        "TEXCOORD_0" : 6
                    },
                    "indices" : 7
                }
            ]
        }
    ],
    "textures" : [
        {
            "source" : 0
        }
    ],
    "images" : [
        {
            "bufferView" : 4,
            "mimeType" : "image/jpeg",
            "name" : "sunTexture"
        }
    ],
    "accessors" : [
        {
            "bufferView" : 0,
            "componentType" : 5126,
            "count" : 22610,
            "max" : [
                0.9995559453964233,
                1,
                0.9990450739860535
            ],
            "min" : [
                -0.9995550513267517,
                -1,
                -0.9997236728668213
            ],
            "type" : "VEC3"
        },
        {
            "bufferView" : 1,
            "componentType" : 5126,
            "count" : 22610,
            "type" : "VEC3"
        },
        {
            "bufferView" : 2,
            "componentType" : 5126,
            "count" : 22610,
            "type" : "VEC2"
        },
        {
            "bufferView" : 3,
            "componentType" : 5123,
            "count" : 33660,
            "type" : "SCALAR"
        },
        {
            "bufferView" : 5,
            "componentType" : 5126,
            "count" : 4,
            "max" : [
                1,
                0,
                1
            ],
            "min" : [
                -1,
                0,
                -1
            ],
            "type" : "VEC3"
        },
        {
            "bufferView" : 6,
            "componentType" : 5126,
            "count" : 4,
            "type" : "VEC3"
        },
        {
            "bufferView" : 7,
            "componentType" : 5126,
            "count" : 4,
            "type" : "VEC2"
        },
        {
            "bufferView" : 8,
            "componentType" : 5123,
            "count" : 6,
            "type" : "SCALAR"
        }
    ],
    "bufferViews" : [
        {
            "buffer" : 0,
            "byteLength" : 271320,
            "byteOffset" : 0
        },
        {
            "buffer" : 0,
            "byteLength" : 271320,
            "byteOffset" : 271320
        },
        {
            "buffer" : 0,
            "byteLength" : 180880,
            "byteOffset" : 542640
        },
        {
            "buffer" : 0,
            "byteLength" : 67320,
            "byteOffset" : 723520
        },
        {
            "buffer" : 0,
            "byteLength" : 822427,
            "byteOffset" : 790840
        },
        {
            "buffer" : 0,
            "byteLength" : 48,
            "byteOffset" : 1613268
        },
        {
            "buffer" : 0,
            "byteLength" : 48,
            "byteOffset" : 1613316
        },
        {
            "buffer" : 0,
            "byteLength" : 32,
            "byteOffset" : 1613364
        },
        {
            "buffer" : 0,
            "byteLength" : 12,
            "byteOffset" : 1613396
        }
    ],
    "buffers" : [
        {
            "byteLength" : 1613408,
            "uri" : "data:application/octet-stream;base64,"
        }
    ]
}
